<svg id="Calender" xmlns="http://www.w3.org/2000/svg" width="24" height="24" viewBox="0 0 24 24">
  <g id="calendar-edit">
    <path id="Vector" d="M0,0V3" transform="translate(8 2)" fill="none" stroke="#b9b9b9" stroke-linecap="round" stroke-linejoin="round" stroke-width="1.5"/>
    <path id="Vector-2" data-name="Vector" d="M0,0V3" transform="translate(16 2)" fill="none" stroke="#b9b9b9" stroke-linecap="round" stroke-linejoin="round" stroke-width="1.5"/>
    <path id="Vector-3" data-name="Vector" d="M0,0H17" transform="translate(3.5 9.09)" fill="none" stroke="#b9b9b9" stroke-linecap="round" stroke-linejoin="round" stroke-width="1.5"/>
    <g id="Group" transform="translate(15.171 15.197)">
      <path id="Vector-4" data-name="Vector" d="M4.039.573.5,4.113a1.232,1.232,0,0,0-.3.59l-.19,1.35a.635.635,0,0,0,.76.76l1.35-.19a1.189,1.189,0,0,0,.59-.3l3.54-3.54a1.365,1.365,0,0,0,0-2.22A1.361,1.361,0,0,0,4.039.573Z" fill="none" stroke="#b9b9b9" stroke-linecap="round" stroke-linejoin="round" stroke-width="1.5"/>
      <path id="Vector-5" data-name="Vector" d="M0,0A3.185,3.185,0,0,0,2.22,2.22" transform="translate(3.529 1.083)" fill="none" stroke="#b9b9b9" stroke-linecap="round" stroke-linejoin="round" stroke-width="1.5"/>
    </g>
    <path id="Vector-6" data-name="Vector" d="M9,18.5H5c-3.5,0-5-2-5-5V5C0,2,1.5,0,5,0h8c3.5,0,5,2,5,5V8.5" transform="translate(3 3.5)" fill="none" stroke="#b9b9b9" stroke-linecap="round" stroke-linejoin="round" stroke-width="1.5"/>
    <path id="Vector-7" data-name="Vector" d="M0,0H24V24H0Z" fill="none" opacity="0"/>
    <path id="Vector-8" data-name="Vector" d="M.495.5H.5" transform="translate(11.501 13.2)" fill="none" stroke="#b9b9b9" stroke-linecap="round" stroke-linejoin="round" stroke-width="2"/>
    <path id="Vector-9" data-name="Vector" d="M.495.5H.5" transform="translate(7.8 13.2)" fill="none" stroke="#b9b9b9" stroke-linecap="round" stroke-linejoin="round" stroke-width="2"/>
    <path id="Vector-10" data-name="Vector" d="M.495.5H.5" transform="translate(7.8 16.2)" fill="none" stroke="#b9b9b9" stroke-linecap="round" stroke-linejoin="round" stroke-width="2"/>
  </g>
</svg>
